<svg viewBox="0 0 1024 1024" version="1.1" xmlns="http://www.w3.org/2000/svg" xmlns:xlink="http://www.w3.org/1999/xlink" width="32" height="32">
	<path d="M511.997867 511.997867m-511.997867 0a511.997867 511.997867 0 1 0 1023.995733 0 511.997867 511.997867 0 1 0-1023.995733 0Z" fill="#FCF0FF"></path>
	<path d="M319.998667 986.910021c36.232382-78.890338 101.733976-118.34404 196.509048-118.34404s158.429207 39.449436 190.966671 118.34404c-66.994921 24.72523-132.381315 37.085712-196.154916 37.085712-63.773601 0-127.547202-12.360482-191.320803-37.085712z" fill="#1F1F1F"></path>
	<path d="M461.711143 735.996933m46.933138 0l6.702905 0q46.933138 0 46.933138 46.933138l0 88.989496q0 46.933138-46.933138 46.933138l-6.702905 0q-46.933138 0-46.933138-46.933138l0-88.989496q0-46.933138 46.933138-46.933138Z" fill="#FFD3AC"></path>
	<path d="M461.711143 854.055108c14.634606 9.471961 30.681472 14.207941 48.157666 14.207941 17.471927 0 34.943854-4.73598 52.415781-14.207941v-54.36564h-100.573447v54.369907z" fill="#E7BA99"></path>
	<path d="M292.401982 492.861946c-60.842413-7.961567-91.26362 14.143941-91.26362 66.320791 0 52.172583 26.282557 80.349532 78.843405 84.522314 31.816401 117.115245 111.167537 175.670735 238.040608 175.670735 126.877338 0 204.888746-58.555489 234.042758-175.670735 55.991233-12.134349 83.988983-40.307032 83.988983-84.522314s-23.650035-68.373048-70.950104-72.481832c0.285865-165.989708-82.073258-248.988829-247.081637-248.988829-165.008379 0-240.212332 85.051379-225.620393 255.145604z" fill="#FFD3AC"></path>
	<path d="M269.204212 407.452169C317.865342 354.592656 389.109845 328.165033 482.946254 328.165033c93.836409 0 136.750364-14.301807 128.741864-42.901155l126.079475 144.042067c17.706593 18.303924 26.568423 39.376903 26.568422 63.223203 0 17.181795 38.540639-10.030892 58.51709-85.076979 5.166912-19.413252 5.166912-60.142683 0-122.188291h-35.34492c4.381848-31.871867 2.858655-58.026425-4.578114-78.46794-7.436769-20.441515-22.489506-39.867567-45.166745-58.27389v28.381748c-18.999388-31.248936-40.349699-54.31444-64.0424-69.179445-23.701235-14.869271-55.504835-25.160428-95.410802-30.873471v35.148653c-25.454827-17.433527-54.749639-29.149745-87.880167-35.148653-33.134795-5.998908-68.539448-5.998908-106.222491 0v41.642493c-35.814251-0.895996-64.87013 1.962658-87.17617 8.575964-22.30604 6.613306-40.409432 17.732193-54.314441 33.365195l26.487357 22.783905c-25.915625 14.822338-43.519819 28.522548-52.816847 41.092095-9.292761 12.569548-13.704476 28.654814-13.230878 48.255799h39.560368c-16.605797 15.761001-28.287882 33.117729-35.05052 52.070183-6.766905 18.948188-8.268766 38.536373-4.509848 58.764555h51.85685l14.190875 24.0511z" fill="#5D408F"></path>
	<path d="M397.71141 511.997867m-27.430286 0a27.430286 27.430286 0 1 0 54.860571 0 27.430286 27.430286 0 1 0-54.860571 0Z" fill="#5B1C17"></path>
	<path d="M626.284324 511.997867m-27.430286 0a27.430286 27.430286 0 1 0 54.860572 0 27.430286 27.430286 0 1 0-54.860572 0Z" fill="#5B1C17"></path>
	<path d="M310.859505 612.567048a52.569381 22.856438 0 1 0 105.138762 0 52.569381 22.856438 0 1 0-105.138762 0Z" fill="#FDA797"></path>
	<path d="M626.284324 612.567048a52.569381 22.856438 0 1 0 105.138762 0 52.569381 22.856438 0 1 0-105.138762 0Z" fill="#FDA797"></path>
	<path d="M487.767568 619.10782c3.955184 10.879955 13.218078 16.319932 27.788684 16.319932 14.566339 0 24.268699-5.439977 29.098545-16.319932-10.201557 2.261324-19.903917 3.391986-29.098545 3.391986-9.198895 0-18.46179-1.130662-27.788684-3.391986z" fill="#E7BA99"></path>
	<path d="M410.613756 685.496877h217.688693c-16.447931 56.379498-53.810976 84.564981-112.089133 84.564981-58.282424 0-93.482277-28.185483-105.59956-84.564981z" fill="#FFFFFF"></path>
	<path d="M410.613756 685.496877h217.688693-217.688693z m209.867925 21.333245c-19.114587 42.154491-53.874976 63.231737-104.268365 63.231736-50.397657 0-83.532452-21.077246-99.412919-63.231736h203.681284z" fill="#9A1D21"></path>
	<path d="M451.620518 753.046462c12.053283-21.320444 34.666522-31.9828 67.839718-31.9828 33.168928 0 55.338436 9.941292 66.512789 29.811076-9.672493 7.398369-19.370586 12.501281-29.102812 15.300203-9.727959 2.798922-22.42124 4.147183-38.075575 4.040516-14.634606-0.098133-26.939621-1.450661-36.915046-4.040516-9.979692-2.594123-20.06605-6.971704-30.259074-13.128479z" fill="#C7393D"></path>
	<path d="M335.187937 481.397461c15.428202-9.67676 33.66386-15.244736 54.711238-16.699664 21.043112-1.459194 41.616893 1.420794 61.721343 8.639964-19.272453-19.852717-41.386494-28.03615-66.34639-24.563098-24.964163 3.477319-41.65956 14.34874-50.086191 32.622798zM687.856334 481.397461c-15.428202-9.67676-33.66386-15.244736-54.706972-16.699664-21.047379-1.459194-41.62116 1.420794-61.721343 8.639964 19.268186-19.852717 41.386494-28.03615 66.34639-24.563098 24.959896 3.477319 41.655293 14.34874 50.081925 32.622798z" fill="#5B1C17"></path>
	<path d="M282.234557 370.908321c-24.819097 11.575418-42.709155 25.130562-53.665909 40.673964-10.956754 15.543402-17.305528 36.364648-19.042054 62.46374L262.505573 447.998133l4.842646 44.863813h25.053763c-2.244257-21.316178 0.994129-41.642493 9.715159-60.978946s24.375365-39.658501 46.958738-60.970412H282.234557z" fill="#5D408F"></path>
	<path d="M272.630331 516.567448c-1.979725 22.067108 0.068266 48.452065 6.143974 79.163403 9.105029 46.062741-69.247711 0-50.205657-48.469131 5.845309-14.856471 18.619656-27.605218 27.81855-30.694272a24.857496 24.857496 0 0 1 16.243133 0zM765.735476 516.567448c1.975458 22.067108-0.068266 48.452065-6.143974 79.163403-9.105029 46.062741 69.247711 0 50.201391-48.469131-5.841042-14.856471-18.619656-27.605218-27.818551-30.694272a24.857496 24.857496 0 0 0-16.243133 0z" fill="#E1A588"></path>
	<path d="M289.300128 319.145337c18.393523-16.183399 38.997171-28.441481 61.815209-36.76998 22.813772-8.328499 51.413119-12.09595 85.785243-11.29382-29.192412-16.063933-57.787493-19.536985-85.785243-10.419156C323.11332 269.780209 302.51394 289.278795 289.300128 319.149604z" fill="#896ABF"></path>
	<path d="M578.310124 111.999533c14.434073 24.362565 24.533231 50.815788 30.293207 79.376736 5.759976 28.556681 7.287436 59.737351 4.586647 93.546277l14.732739 18.376457c1.041062-58.37629-2.786122-99.993183-11.485819-124.854947-13.043146-37.290511-21.602043-53.375778-27.99775-58.572555-4.266649-3.464519-7.637302-6.088508-10.129024-7.876234z" fill="#48297F"></path>
</svg>