<svg viewBox="0 0 1024 1024" version="1.1" xmlns="http://www.w3.org/2000/svg" xmlns:xlink="http://www.w3.org/1999/xlink" width="32" height="32">
	<path d="M511.8989 511.8989m-511.8989 0a511.8989 511.8989 0 1 0 1023.7978 0 511.8989 511.8989 0 1 0-1023.7978 0Z" fill="#EAF4FF"></path>
	<path d="M422.316592 665.46857H575.886262v175.965247h-153.56967z" fill="#F6CAC8"></path>
	<path d="M516.697952 1023.7978c97.580728 0 217.557032-28.794313 335.933653-129.574409-62.387678-67.186731-161.56809-110.3782-263.94787-126.375041-27.194629 57.588626-59.18831 63.987362-89.582308 63.987362-30.393997 0-63.987362-6.398736-89.582307-63.987362-95.981044 14.397157-185.563351 57.588626-251.150398 113.577568 68.786415 65.587047 196.76114 147.170934 358.32923 142.371882" fill="#86B1F8"></path>
	<path d="M689.463831 446.311853l6.398736-73.585466c0-97.580728-92.781676-175.965247-188.762719-175.965247-97.580728 0-188.762719 78.384519-188.76272 175.965247l6.398737 73.585466c-4.799052 1.599684-9.598104 4.799052-14.397157 6.398737-6.398736 6.398736-12.797472 15.996841-12.797472 27.194629v36.792733c0 19.196209 15.996841 35.193049 35.193049 35.19305 0 91.181992 108.778516 179.164615 175.965247 179.164615 57.588626 0 148.770618-67.186731 171.166195-143.971566l4.799052-19.196209c1.599684-4.799052 1.599684-9.598104 1.599684-14.397156 19.196209 0 35.193049-15.996841 35.193049-35.19305v-36.792733c-4.799052-17.596525-15.996841-31.993681-31.993681-35.19305z" fill="#FCDBDA"></path>
	<path d="M719.857828 199.960508c-1.599684-9.598104-12.797472-9.598104-22.395577-7.998421-31.993681 1.599684-41.591786-9.598104-108.778516-49.590205s-135.973145-23.995261-182.363983 9.598104c-211.158296 49.590206-86.382939 335.933653-86.38294 335.933653s-1.599684-150.370302 63.987363-196.76114c108.778516 75.185151 220.756401 78.384519 284.743763 33.593366 23.995261 57.588626 15.996841 161.56809 15.996841 161.56809s41.591786-107.178832 19.196208-201.560192c14.397157-20.795893 19.196209-51.18989 15.996841-84.783255z" fill="#333333"></path>
	<path d="M427.435581 478.305535c20.795893 0 38.392417 12.797472 38.392418 6.398736s-17.596525-23.995261-38.392418-23.995261-38.392417 17.596525-38.392417 23.995261 17.596525-6.398736 38.392417-6.398736zM593.802724 478.305535c20.795893 0 38.392417 12.797472 38.392417 6.398736s-17.596525-23.995261-38.392417-23.995261-38.392417 17.596525-38.392418 23.995261 17.596525-6.398736 38.392418-6.398736z" fill="#333333"></path>
	<path d="M510.619153 652.671097c27.194629 0 46.390838-12.797472 57.588626-38.392417h-115.177253c11.197788 25.594945 30.393997 38.392417 57.588627 38.392417z" fill="#FFFFFF"></path>
	<path d="M499.101427 831.835712c43.19147 0 78.384519-28.794313 78.38452-63.987362h11.197788c0 43.19147-39.992102 76.784835-89.582308 76.784835s-89.582307-33.593365-89.582307-76.784835h11.197788c0 35.193049 35.193049 63.987362 78.384519 63.987362z" fill="#FFFFFF"></path>
	<path d="M326.335549 908.620547h63.987362c3.199368 0 6.398736 3.199368 6.398736 6.398737s-3.199368 6.398736-6.398736 6.398736h-63.987362c-3.199368 0-6.398736-3.199368-6.398737-6.398736s3.199368-6.398736 6.398737-6.398737z" fill="#FFFFFF" opacity="0.65"></path>
</svg>