<svg viewBox="0 0 1024 1024" version="1.1" xmlns="http://www.w3.org/2000/svg" xmlns:xlink="http://www.w3.org/1999/xlink" width="32" height="32">
	<path d="M613.376 566.784c1.536-1.536 2.56-3.072 4.096-5.12-2.048 2.56-4.096 5.12-6.144 7.168-0.512 33.28 6.656 67.072 17.408 96.256v-0.512l14.848 3.072c-9.728-27.648-20.48-54.784-27.136-83.456-1.024-5.632-2.56-11.264-3.072-17.408z" fill="#EDEEF5"></path>
	<path d="M92.672 795.648c4.608-21.504 17.92-40.448 36.864-52.224 2.048-2.048 4.096-3.584 6.144-5.632 15.872-12.288 36.864-16.896 54.784-22.016 36.352-9.728 71.68-18.432 101.888-25.6 49.152-11.264 83.968-17.92 88.064-18.944h0.512c16.384-22.528 23.552-56.832 21.504-79.36-0.512-1.024-1.024-2.048-1.024-2.56-26.624-25.6-47.104-58.368-63.488-93.184 0 0.512 0.512 0.512 0.512 1.024-69.632-19.456-96.256-172.032-42.496-135.168-17.92-129.024 58.368-261.632 201.728-264.192 64.512-1.536 126.976 30.208 167.936 79.36 40.96 49.152 40.96 111.104 37.376 172.544 0.512-1.024-2.56 0.512-6.144 2.048 48.128-24.064 32.768 112.64-30.72 136.704 38.912 42.496 62.464 98.816 63.488 156.16 0.512 15.36-1.024 30.72-3.584 45.568 32.256 6.656 69.12 15.36 106.496 25.6 17.92 5.12 39.424 9.728 54.784 22.016 2.048 1.536 4.096 3.584 6.144 5.632 18.944 11.264 32.256 30.208 36.864 52.224 0.512 2.048 1.024 4.608 1.536 7.68 57.344-82.944 91.136-183.296 91.136-291.84C1024 229.376 794.624 0 512 0S0 229.376 0 512c0 108.544 33.792 208.896 91.136 291.84 1.024-3.584 1.536-6.144 1.536-8.192z" fill="#EDEEF5"></path>
	<path d="M620.032 558.592c1.536-1.536 2.56-3.584 4.096-5.12-1.536 1.536-2.56 3.584-4.096 5.12zM627.712 548.352c0.512-1.024 1.536-2.048 2.048-3.072-0.512 1.024-1.024 2.048-2.048 3.072z" fill="#EDEEF5"></path>
	<path d="M611.328 569.344c2.048-2.56 4.096-4.608 6.144-7.168 1.024-1.024 2.048-2.048 2.56-3.584 1.536-1.536 2.56-3.584 4.096-5.12 1.536-1.536 2.56-3.584 4.096-5.12 0.512-1.024 1.536-2.048 2.048-3.072 12.8-17.408 23.552-36.352 32.256-55.296h-0.512c11.776-27.648 15.872-66.56 17.408-106.496-6.656 12.8-15.872 28.672-19.456 38.4-9.216-52.224-207.36-40.96-287.744-203.264-25.6 31.744-56.32 98.304-63.488 153.6 1.024 45.056 16.384 91.136 29.696 123.392 16.384 34.816 36.864 67.584 63.488 93.184v-0.512c125.44 111.616 209.408-20.992 209.408-18.944zM691.712 355.328c-0.512 0-1.024 0.512-1.536 1.024 1.536-1.024 2.56-2.048 4.096-2.56-1.536 0.512-2.56 1.024-2.56 1.536zM628.736 666.112c0-0.512 0-0.512 0 0 0-0.512 0-0.512 0 0z" fill="#F7EDEB"></path>
	<path d="M624.128 735.232c0-1.024 0-1.536 0.512-2.56-112.64 2.048-208.896-114.176-221.696-140.8 2.048 23.04-5.632 56.832-21.504 79.36 3.072 27.648 8.192 54.784 14.336 81.92 35.84 23.552 111.616 49.664 228.352-17.92z" fill="#F7EDEB"></path>
	<path d="M624.64 732.672c3.072-25.088 3.584-47.104 4.096-66.56v-0.512c-10.752-29.696-17.408-62.976-17.408-96.256 0-2.048-83.968 130.56-209.408 19.968v0.512c0 0.512 0.512 1.536 1.024 2.56 12.8 26.112 109.056 142.336 221.696 140.288z" fill="#E3DCDB"></path>
	<path d="M598.528 846.336c14.336-41.472 21.504-78.336 25.6-111.104-116.736 67.584-192.512 41.472-228.352 18.432 6.144 26.112 13.312 51.712 22.528 77.312 16.896 48.128 38.912 130.048 65.024 192 9.728 0.512 18.944 1.024 28.672 1.024 9.728 0 19.456-0.512 29.184-1.024 23.552-57.344 42.496-133.12 57.344-176.64z" fill="#FFFFFF"></path>
	<path d="M311.296 427.52c-7.168-20.992-12.288-42.496-15.36-64.512v-1.024c-53.248-36.864-26.624 115.712 42.496 135.168 0-0.512-0.512-0.512-0.512-1.024-13.312-31.744-28.672-78.336-29.696-123.392-2.048 20.48-2.048 39.424 3.072 54.784z" fill="#EFE7E6"></path>
	<path d="M894.464 743.936c-2.048-2.048-4.096-3.584-6.144-5.632-15.872-12.288-36.864-16.896-54.784-22.016-37.376-10.24-74.752-18.432-106.496-25.6v0.512l42.496 56.32-57.856 72.192 57.856 37.888c-43.008 48.128-84.48 98.304-123.904 148.992 118.272-31.744 219.648-104.96 287.744-202.752-0.512-3.072-1.024-6.144-1.536-7.68-5.12-22.016-18.432-40.96-37.376-52.224zM292.864 690.688l88.064-18.944c-4.096 1.024-39.424 7.68-88.064 18.944zM252.416 857.6l57.856-37.888L252.416 747.52l40.448-56.832c-30.208 7.168-65.024 15.36-101.888 25.6-17.92 5.12-39.424 9.728-54.784 22.016-2.048 1.536-4.096 3.584-6.144 5.632-18.944 11.264-32.256 30.208-36.864 52.224-0.512 2.048-1.024 4.608-1.536 7.68 67.584 96.768 167.424 169.472 284.16 201.728-39.936-50.688-80.896-100.352-123.392-147.968z" fill="#9084BC"></path>
	<path d="M418.304 830.976c-8.704-25.6-16.384-51.2-22.528-77.312-6.144-27.136-11.264-54.272-14.336-81.92h-0.512l-88.064 18.944-40.448 56.832 57.856 72.192-57.856 37.888c42.496 48.128 83.968 97.28 123.392 147.968 34.816 9.728 70.656 15.36 107.52 17.92-26.112-62.464-48.64-144.384-65.024-192.512zM769.024 857.6l-57.856-37.888 57.856-72.192-42.496-56.32c-10.24 54.784-38.912 105.984-81.92 141.312 24.064-35.84 22.528-83.456 11.776-124.928-3.584-13.312-7.68-26.624-12.288-39.424l-14.848-3.072v1.024c-0.512 19.456-1.536 41.984-4.096 66.56 0 1.024 0 1.536-0.512 2.56-4.096 32.768-11.264 69.632-25.6 111.104-14.848 43.52-33.792 119.296-57.856 176.64 35.84-2.048 70.656-7.68 103.936-16.896 39.424-50.688 80.896-100.352 123.904-148.48z" fill="#6461AF"></path>
	<path d="M662.528 490.496c-8.704 18.432-19.968 37.376-32.256 55.296-0.512 1.024-1.536 2.048-2.048 3.072-1.024 1.536-2.56 3.584-4.096 5.12-1.536 1.536-2.56 3.584-4.096 5.12-1.024 1.024-2.048 2.048-2.56 3.584-1.536 1.536-2.56 3.072-4.096 5.12 1.024 6.144 2.048 11.776 3.072 17.92 6.656 28.672 17.408 55.808 27.136 83.456 4.608 13.312 9.216 26.112 12.288 39.424 10.752 41.472 12.288 89.088-11.776 124.928 43.008-35.328 72.192-86.528 81.92-141.312v-0.512c2.56-14.848 4.096-30.208 3.584-45.568-1.024-57.344-24.576-114.176-63.488-156.16-1.024-0.512-2.048 0-3.584 0.512z" fill="#414042"></path>
	<path d="M694.272 353.792c-1.024 1.024-2.56 1.536-4.096 2.56-3.072 3.584-4.608 13.312-5.632 16.384-1.536 3.072-3.072 7.168-5.632 11.264-1.536 39.424-5.632 78.848-17.408 106.496h0.512c1.536-0.512 3.072-1.024 4.096-1.536 63.488-24.064 78.336-160.768 30.72-136.704-0.512 0.512-1.536 1.024-2.56 1.536z" fill="#EFE7E6"></path>
	<path d="M296.448 363.008c3.072 22.016 8.192 43.52 15.36 64.512-5.12-14.848-5.632-34.304-2.56-54.272 7.168-55.296 37.888-121.344 63.488-153.6 80.384 162.304 278.528 151.04 287.744 203.264 3.584-9.728 12.8-25.6 19.456-38.4l5.632-11.264c1.536-3.072 2.56-12.8 5.632-16.384 0.512-0.512 1.024-1.024 1.536-1.024 0.512 0 1.536-0.512 2.56-1.536l3.072-1.536c3.072-1.536 6.144-3.072 6.144-2.048 3.072-61.44 3.584-123.392-37.376-172.544-42.496-50.176-104.96-81.92-169.472-80.384-143.36 2.56-219.136 135.168-201.728 264.192 0 0.512 0 0.512 0.512 1.024z" fill="#414042"></path>
</svg>