<svg viewBox="0 0 1024 1024" version="1.1" xmlns="http://www.w3.org/2000/svg" xmlns:xlink="http://www.w3.org/1999/xlink" width="32" height="32">
	<path d="M511.999467 511.999467m-511.999467 0a511.999467 511.999467 0 1 0 1023.998933 0 511.999467 511.999467 0 1 0-1023.998933 0Z" fill="#F0ECFE"></path>
	<path d="M578.154064 632.490008l-0.213333 15.871983c-0.042667 11.775988 0 25.919973 0.213333 42.453289 0.128 9.194657 2.346664 18.602647 6.015994 27.946638 17.173315 13.525319 44.159954 28.330637 81.023916 44.373287l76.309254 32.319966c47.61595 20.586645 63.146601 30.250635 68.821261 49.706615l0.490666 1.834665c3.370663 13.354653 8.149325 36.693295 14.357319 70.058594A509.567469 509.567469 0 0 1 511.999467 1023.998933a509.866136 509.866136 0 0 1-321.279666-113.322548c5.610661-29.994635 9.98399-51.199947 13.119987-63.679934l1.066665-3.626663c8.469325-25.365307 36.053296-34.175964 136.533191-76.778587 40.959957-17.365315 70.655926-33.322632 89.045241-47.87195 3.690663-9.301324 5.909327-18.709314 6.015994-27.925304l0.213333-22.975976c0.064-14.143985 0-25.919973-0.213333-35.327963l70.826593 1.834665 70.826592-1.834665z" fill="#8363DA"></path>
	<path d="M583.466059 1019.049605z m11.903987-1.813331l-4.202662 0.682666a509.951469 509.951469 0 0 0 4.202662-0.682666z m23.530643-4.415996l-1.877332 0.405333 6.293327-1.365332-6.293327 1.365332 1.877332-0.405333z m11.626654-2.602664l-2.303997 0.533333 5.162661-1.237332-5.162661 1.237332 2.303997-0.533333z m11.519988-2.879997l-2.538664 0.64 4.693329-1.215999-4.693329 1.237332 2.559998-0.661333z m11.413322-3.135996l-4.479996 1.279998 6.911993-1.983998-6.933326 1.983998 4.501329-1.279998z m11.306655-3.391997l-6.463994 1.983998 7.039993-2.133331-7.039993 2.133331c2.154664-0.639999 4.330662-1.301332 6.463994-1.983998z m22.29331-7.530659l-1.450666 0.533333 5.866661-2.154664-5.866661 2.154664 1.450666-0.533333z m10.965322-4.117329l-1.962665 0.746666 4.586662-1.791998-4.586662 1.791998 1.962665-0.746666z m10.837322-4.373328l-1.834665 0.746665 3.690663-1.535998-3.690663 1.557332 1.834665-0.767999z m10.730655-4.629329l-2.90133 1.279999 4.607995-2.047998-4.629329 2.047998 2.922664-1.279999z m10.581322-4.842662l-4.437328 2.069332a509.396803 509.396803 0 0 0 4.437328-2.069332z m20.799979-10.389322l-0.746666 0.383999a510.634135 510.634135 0 0 0 0.746666-0.383999z m20.245312-11.306655l-3.007997 1.749331 7.039993-4.159995-7.039993 4.159995 2.986664-1.749331z m19.64798-12.159987a512.490133 512.490133 0 0 1 0.021333-0.042667v0.042667z m-126.591869-695.743276c85.610577 83.967913 63.274601 188.799803 65.365266 210.005115 2.090664 21.205311-25.77064 170.602489-32.746633 211.989112-5.226661 31.061301 16.149317 81.450582 43.519955 127.295868l-75.221255-31.871967c-36.863962-16.04265-63.8506-30.847968-81.023916-44.373287a79.466584 79.466584 0 0 1-6.015994-27.946638c-0.213333-16.533316-0.256-30.677301-0.213333-42.453289l0.213333-15.871983-70.826592 1.834665-70.826593-1.834665c0.213333 9.386657 0.277333 21.183978 0.213333 35.327963l-0.213333 22.975976c-0.106667 9.21599-2.346664 18.623981-6.015994 27.946638-18.389314 14.506652-48.06395 30.485302-89.066574 47.850616-9.59999 4.074662-18.538647 7.829325-26.858639 11.327989 10.965322-21.375978 20.287979-39.551959 22.314644-69.290595 3.775996-55.551942-24.746641-62.079935-35.797296-201.130457-11.071988-139.093188 7.167993-248.426408 102.18656-286.463702 94.997234-38.01596 175.359817-59.285272 261.013061 24.682641z" fill="#B5B0FE"></path>
	<path d="M326.612993 436.415545a225.877098 180.714478 90 1 0 361.428957 0 225.877098 180.714478 90 1 0-361.428957 0Z" fill="#FEFEFE"></path>
	<path d="M537.450107 292.650362c-30.591968 52.095946-103.743892 113.855881-206.165119 135.487859-11.306655 2.218664-20.010646 7.125326-19.626646-6.89066 0.746666-29.141303 33.407965-100.010562 56.106608-136.874524 8.895991-14.399985 25.941306-28.79997 51.178614-43.157288l111.487883-25.045308 108.927887 38.613294 63.445267 133.397194-15.893317 124.501204-6.05866-28.010638c-26.197306-81.877248-73.983923-145.877181-143.402517-192.021133z" fill="#B1ACFE"></path>
	<path d="M654.164652 598.527377c-19.903979 11.498655-40.042625 18.197314-56.469275 19.754646v-7.530659c14.826651-1.599998 33.749298-7.807992 52.693279-18.751981 25.791973-14.869318 43.946621-34.111964 49.706615-48.682616h7.893325c-5.546661 17.493315-25.663973 38.954626-53.823944 55.21061z" fill="#543D82"></path>
	<path d="M575.323264 618.012888a21.333311 22.591976 82 1 0 44.744226-6.288391 21.333311 22.591976 82 1 0-44.744226 6.288391Z" fill="#543D82"></path>
	<path d="M710.633926 546.346098c16.639983 0 59.690604-15.061318 59.690605-75.306589 0-60.223937-43.050622-75.285255-59.690605-75.285255-6.783993 0-21.077311 5.631994-26.111972 15.103985-3.989329 7.466659-4.010662 35.583963-4.010663 60.202604 0 24.597308-0.064 52.501279 4.010663 60.18127 5.034661 9.493323 19.306647 15.103984 26.111972 15.103985zM304.04235 546.346098c-16.639983 0-59.690604-15.061318-59.690605-75.306589 0-60.223937 43.050622-75.285255 59.690605-75.285255 6.783993 0 21.077311 5.631994 26.111973 15.103985 3.967996 7.466659 4.010662 35.583963 4.010662 60.202604 0 24.597308 0.064 52.501279-4.010662 60.18127-5.034661 9.493323-19.32798 15.103984-26.111973 15.103985z" fill="#543D82"></path>
	<path d="M744.511224 433.407549C744.511224 290.538364 638.975334 173.653152 507.348805 173.653152S270.165052 290.517031 270.165052 433.407549h52.693278c0-114.922547 83.221247-207.061118 184.469142-207.061118s184.469141 92.159904 184.469141 207.061118h52.714611z" fill="#543D82"></path>
</svg>