<?xml version="1.0" encoding="utf-8"?>
<!-- Generator: Adobe Illustrator 23.0.2, SVG Export Plug-In . SVG Version: 6.00 Build 0)  -->
<svg version="1.1" id="logo" xmlns="http://www.w3.org/2000/svg" xmlns:xlink="http://www.w3.org/1999/xlink" x="0px" y="0px"
	 viewBox="0 0 189.1 197.9" style="enable-background:new 0 0 189.1 197.9;" xml:space="preserve">
<style type="text/css">
	.st0{fill:#ED5565;}
	.st1{fill:#2D8CF0;}
</style>
<title>logo</title>
<path class="st0" d="M119,0c7.7,2.2,12.3,7.8,16,14.6c3,5.6,6.6,10.8,9.8,16.2c0.9,1.5,2.3,2.8,1.8,5.3c-4.8-2.8-9.7-4.5-15.2-4.1
	c-9.1,0.7-15.3,5.7-19.9,13.3C94.3,73.9,76.9,102.5,59.5,131c-0.8,1.4-1.4,3.1-3.3,4.1L0,43c12.6,0,24.4,0,36.1,0
	c2.4,0,2.9,1.9,3.9,3.3c5.4,8.8,10.8,17.6,16.5,26.8c6.9-11.2,13.6-22,20.3-32.9c5.1-8.2,10.3-16.3,15-24.7c4-7.2,9.1-13,17.2-15.5
	L119,0z"/>
<path class="st1" d="M80.6,112.6c4.3,6.9,8.3,13.2,12,19.7c2,3.5,2.9,2.9,4.8-0.1c17.2-28.3,34.6-56.5,51.8-84.8
	c2-3.3,4-4.6,7.9-4.5c10.6,0.3,21.3,0.1,32,0.1c0.2,2.3-1.3,3.6-2.2,5c-29.7,48.8-59.3,97.6-89.1,146.3c-2.8,4.7-2.8,4.7-5.7,0
	c-9.5-15.6-19-31.3-28.6-46.9c-1.3-2.2-1.9-3.9-0.3-6.3C69,131.9,74.5,122.6,80.6,112.6z"/>
</svg>
